<?xml version="1.0" standalone="no"?>
<!DOCTYPE svg PUBLIC "-//W3C//DTD SVG 20010904//EN"
 "http://www.w3.org/TR/2001/REC-SVG-20010904/DTD/svg10.dtd">
<svg version="1.0" xmlns="http://www.w3.org/2000/svg"
 width="512.000000pt" height="512.000000pt" viewBox="0 0 512.000000 512.000000"
 preserveAspectRatio="xMidYMid meet">

<g transform="translate(0.000000,512.000000) scale(0.100000,-0.100000)"
fill="#000000" stroke="none">
<path d="M3565 4774 c-250 -38 -443 -95 -617 -183 l-114 -56 -88 46 c-371 195
-880 215 -1365 53 -295 -98 -521 -235 -713 -430 -216 -221 -318 -453 -319
-724 -1 -122 18 -216 61 -304 83 -172 244 -288 432 -311 l56 -7 12 -67 c26
-139 105 -340 172 -433 14 -20 17 -33 10 -40 -15 -15 -140 -58 -169 -58 -15 0
-142 23 -283 51 -371 74 -496 73 -532 -5 -16 -36 9 -77 62 -103 100 -49 316
-54 588 -12 l134 20 161 -21 c151 -19 164 -22 186 -48 13 -15 61 -70 106 -122
46 -52 167 -178 270 -279 l186 -183 -19 -47 c-42 -97 -52 -218 -28 -333 54
-252 278 -434 616 -500 95 -18 373 -15 495 6 435 76 738 321 874 709 54 154
72 262 78 475 7 220 -8 180 129 346 204 249 303 540 292 863 l-4 125 58 -6
c99 -10 177 -66 213 -153 65 -154 28 -346 -91 -482 l-47 -53 89 7 c240 19 394
90 457 209 33 63 31 202 -4 276 -50 107 -164 189 -315 227 -50 12 -110 17
-220 17 l-152 0 -6 44 c-9 68 -62 217 -117 331 -43 87 -63 116 -132 186 -156
156 -361 248 -609 270 l-77 7 -33 52 c-48 74 -131 172 -207 242 l-66 62 30 32
c42 45 130 111 195 148 80 45 252 100 374 118 91 14 106 20 106 35 0 22 4 22
-115 3z m-1395 -74 c195 -18 364 -66 515 -148 39 -21 70 -43 70 -50 0 -6 -31
-33 -70 -60 -133 -93 -282 -242 -402 -400 -30 -40 -58 -72 -61 -70 -4 2 -50
24 -102 50 -132 65 -199 81 -347 80 l-121 0 -17 44 c-9 24 -23 44 -31 44 -18
0 -18 -19 1 -64 12 -29 13 -37 3 -40 -199 -58 -291 -108 -399 -215 -170 -170
-282 -429 -313 -723 l-11 -112 -38 44 c-74 86 -102 209 -94 408 7 183 36 294
122 467 77 156 164 274 285 388 241 226 542 357 845 365 28 1 102 -3 165 -8z
m786 -422 c35 -70 63 -174 64 -235 0 -30 -5 -35 -59 -62 -109 -55 -255 -187
-354 -318 -18 -23 -37 -43 -44 -43 -6 0 -21 12 -32 26 l-21 26 72 137 c158
301 312 556 329 545 5 -3 25 -37 45 -76z m-1805 -2020 c10 -13 18 -27 19 -31
0 -9 -113 2 -145 13 -16 6 -11 10 30 23 67 21 74 21 96 -5z m2174 -800 c-63
-321 -185 -531 -377 -652 -77 -49 -143 -73 -245 -91 -164 -29 -281 -17 -400
39 -163 78 -263 224 -263 385 0 98 5 107 56 120 l44 11 118 -89 c151 -115 288
-201 320 -201 64 0 300 179 622 469 91 83 136 117 138 107 2 -9 -4 -53 -13
-98z"/>
</g>
</svg>
